<svg xmlns="http://www.w3.org/2000/svg" xmlns:xlink="http://www.w3.org/1999/xlink" width="500" zoomAndPan="magnify" viewBox="0 0 375 374.999991" height="500" preserveAspectRatio="xMidYMid meet" version="1.0"><defs><g/><clipPath id="4f361a596c"><path d="M 105.097656 123.777344 L 184.417969 123.777344 L 184.417969 159.835938 L 105.097656 159.835938 Z M 105.097656 123.777344 " clip-rule="nonzero"/></clipPath></defs><g clip-path="url(#4f361a596c)"><path fill="#ff0000" d="M 105.097656 123.777344 L 184.402344 123.777344 L 184.402344 159.835938 L 105.097656 159.835938 Z M 105.097656 123.777344 " fill-opacity="1" fill-rule="nonzero"/></g><g fill="#ffffff" fill-opacity="1"><g transform="translate(105.097498, 154.325716)"><g><path d="M 12.769531 0.507812 C 21.675781 0.507812 27.726562 -2.617188 27.726562 -8.394531 C 27.726562 -18.042969 11.832031 -18.121094 11.832031 -23.703125 C 11.832031 -25.578125 13.589844 -27.023438 16.167969 -27.023438 C 19.175781 -27.023438 20.816406 -25.539062 20.816406 -23.9375 C 20.816406 -22.847656 20.191406 -21.988281 18.980469 -21.988281 C 17.730469 -21.988281 16.910156 -22.808594 17.066406 -23.820312 L 16.636719 -23.820312 C 16.441406 -23.546875 16.285156 -23.039062 16.285156 -22.652344 C 16.285156 -20.972656 18.003906 -19.527344 20.308594 -19.527344 C 22.652344 -19.527344 24.367188 -20.816406 24.367188 -22.882812 C 24.367188 -25.65625 20.855469 -27.84375 14.605469 -27.84375 C 9.566406 -27.84375 5.429688 -26.046875 5.429688 -22.535156 C 5.429688 -15.738281 20.191406 -16.324219 20.191406 -7.925781 C 20.191406 -4.023438 17.183594 -0.351562 11.753906 -0.351562 C 7.34375 -0.351562 4.140625 -2.460938 4.140625 -5.9375 C 4.140625 -8.394531 5.976562 -10.386719 8.589844 -10.386719 C 11.050781 -10.386719 12.925781 -8.667969 12.925781 -6.328125 C 12.925781 -4.53125 11.910156 -3.125 10.269531 -3.125 C 8.863281 -3.125 8.042969 -4.0625 8.042969 -5.390625 C 8.042969 -6.484375 8.746094 -7.652344 10.074219 -7.5 L 10.074219 -7.847656 C 9.996094 -7.964844 9.292969 -8.238281 8.746094 -8.238281 C 7.109375 -8.238281 6.09375 -6.835938 6.09375 -5.625 C 6.09375 -4.0625 7.730469 -2.382812 10.191406 -2.382812 C 13.550781 -2.382812 15.894531 -5 15.894531 -8.433594 C 15.894531 -12.339844 12.496094 -15.152344 8.121094 -15.152344 C 3.828125 -15.152344 0.429688 -12.339844 0.429688 -8.355469 C 0.429688 -3.085938 5.15625 0.507812 12.769531 0.507812 Z M 12.769531 0.507812 "/></g></g></g><g fill="#ffffff" fill-opacity="1"><g transform="translate(133.71886, 154.325716)"><g><path d="M 12.300781 0.507812 C 19.058594 0.507812 23.898438 -3.90625 23.898438 -10.738281 C 23.898438 -17.535156 19.058594 -21.988281 12.300781 -21.988281 C 5.585938 -21.988281 0.703125 -17.535156 0.703125 -10.738281 C 0.703125 -3.90625 5.585938 0.507812 12.300781 0.507812 Z M 12.300781 -0.390625 C 9.175781 -0.390625 6.914062 -3.90625 6.914062 -10.738281 C 6.914062 -17.574219 9.175781 -21.050781 12.300781 -21.050781 C 15.425781 -21.050781 17.691406 -17.574219 17.691406 -10.738281 C 17.691406 -3.90625 15.425781 -0.390625 12.300781 -0.390625 Z M 12.300781 -0.390625 "/></g></g></g><g fill="#ffffff" fill-opacity="1"><g transform="translate(158.318391, 154.325716)"><g><path d="M 0.976562 0 L 9.644531 0 L 9.644531 -0.429688 C 8.941406 -1.40625 8.355469 -4.84375 8.355469 -10.503906 L 8.355469 -13.589844 C 8.355469 -16.597656 10.191406 -18.863281 12.964844 -18.863281 C 15.738281 -18.863281 17.574219 -16.519531 17.574219 -13.550781 L 17.574219 -10.503906 C 17.574219 -4.84375 17.027344 -1.40625 16.324219 -0.429688 L 16.324219 0 L 24.992188 0 L 24.992188 -0.429688 C 24.289062 -1.40625 23.742188 -4.84375 23.742188 -10.503906 L 23.742188 -13.042969 C 23.742188 -17.925781 20.660156 -21.988281 15.738281 -21.988281 C 12.457031 -21.988281 9.800781 -20.347656 8.785156 -17.457031 L 8.355469 -17.457031 L 8.355469 -22.066406 L 7.925781 -22.066406 C 6.25 -20.894531 3.320312 -20.347656 0.898438 -20.269531 L 0.898438 -19.878906 C 1.601562 -19.253906 2.226562 -17.691406 2.226562 -13.238281 L 2.226562 -10.621094 C 2.226562 -4.921875 1.679688 -1.40625 0.976562 -0.429688 Z M 0.976562 0 "/></g></g></g><g fill="#ff0000" fill-opacity="1"><g transform="translate(184.210774, 154.325716)"><g><path d="M 5.195312 -23.742188 C 7.148438 -23.742188 8.746094 -25.226562 8.746094 -27.101562 C 8.746094 -28.976562 7.148438 -30.460938 5.195312 -30.460938 C 3.242188 -30.460938 1.640625 -28.976562 1.640625 -27.101562 C 1.640625 -25.226562 3.242188 -23.742188 5.195312 -23.742188 Z M 1.132812 0 L 9.800781 0 L 9.800781 -0.429688 C 9.058594 -1.40625 8.550781 -4.84375 8.550781 -10.503906 L 8.550781 -22.066406 L 8.121094 -22.066406 C 6.445312 -20.894531 3.476562 -20.308594 1.09375 -20.230469 L 1.09375 -19.839844 C 1.679688 -19.253906 2.304688 -17.847656 2.382812 -14.175781 L 2.382812 -10.503906 C 2.382812 -4.84375 1.835938 -1.40625 1.132812 -0.429688 Z M 1.132812 0 "/></g></g></g><g fill="#ff0000" fill-opacity="1"><g transform="translate(194.909614, 154.325716)"><g><path d="M 10.855469 0.507812 C 14.644531 0.507812 17.261719 -1.523438 17.261719 -4.453125 C 17.261719 -7.03125 15.464844 -8.550781 13.511719 -8.550781 C 11.714844 -8.550781 10.425781 -7.03125 10.425781 -5.117188 C 10.425781 -4.375 10.660156 -3.671875 10.816406 -3.359375 L 11.128906 -3.359375 C 10.972656 -4.6875 11.714844 -5.703125 12.769531 -5.703125 C 13.863281 -5.703125 14.761719 -4.765625 14.761719 -3.242188 C 14.761719 -1.445312 13.628906 -0.273438 12.027344 -0.273438 C 10.035156 -0.273438 8.746094 -2.421875 8.746094 -5.195312 L 8.746094 -20.621094 L 16.011719 -20.621094 L 16.011719 -21.441406 L 8.667969 -21.441406 L 8.667969 -27.804688 L 8.238281 -27.804688 C 7.539062 -24.484375 5.195312 -21.441406 0.898438 -21.441406 L -0.78125 -21.441406 L -0.78125 -20.621094 L 2.578125 -20.621094 L 2.578125 -7.539062 C 2.578125 -1.796875 6.015625 0.507812 10.855469 0.507812 Z M 10.855469 0.507812 "/></g></g></g><g fill="#ff0000" fill-opacity="1"><g transform="translate(212.6369, 154.325716)"><g><path d="M 5.195312 -23.742188 C 7.148438 -23.742188 8.746094 -25.226562 8.746094 -27.101562 C 8.746094 -28.976562 7.148438 -30.460938 5.195312 -30.460938 C 3.242188 -30.460938 1.640625 -28.976562 1.640625 -27.101562 C 1.640625 -25.226562 3.242188 -23.742188 5.195312 -23.742188 Z M 1.132812 0 L 9.800781 0 L 9.800781 -0.429688 C 9.058594 -1.40625 8.550781 -4.84375 8.550781 -10.503906 L 8.550781 -22.066406 L 8.121094 -22.066406 C 6.445312 -20.894531 3.476562 -20.308594 1.09375 -20.230469 L 1.09375 -19.839844 C 1.679688 -19.253906 2.304688 -17.847656 2.382812 -14.175781 L 2.382812 -10.503906 C 2.382812 -4.84375 1.835938 -1.40625 1.132812 -0.429688 Z M 1.132812 0 "/></g></g></g><g fill="#ff0000" fill-opacity="1"><g transform="translate(223.335741, 154.325716)"><g><path d="M 13.472656 0.507812 C 18.707031 0.507812 23 -1.992188 23 -6.328125 C 23 -9.019531 20.972656 -11.246094 18.238281 -11.246094 C 15.269531 -11.246094 13.628906 -9.214844 13.628906 -6.835938 C 13.628906 -6.171875 13.863281 -5.15625 14.253906 -4.6875 L 14.644531 -4.765625 C 14.371094 -5.898438 15.308594 -7.1875 16.871094 -7.1875 C 18.316406 -7.1875 19.527344 -6.09375 19.527344 -4.257812 C 19.527344 -2.070312 17.925781 -0.429688 14.957031 -0.429688 C 10.503906 -0.429688 6.992188 -5 6.992188 -11.089844 C 6.992188 -16.402344 9.800781 -21.128906 13.394531 -21.128906 C 16.050781 -21.128906 18.199219 -18.667969 18.941406 -14.683594 L 19.292969 -14.683594 L 20.816406 -19.527344 C 18.863281 -21.011719 15.738281 -21.988281 12.847656 -21.988281 C 5.976562 -21.988281 0.703125 -17.535156 0.703125 -10.738281 C 0.703125 -3.984375 6.523438 0.429688 13.472656 0.507812 Z M 13.472656 0.507812 "/></g></g></g><g fill="#ff0000" fill-opacity="1"><g transform="translate(247.037197, 154.325716)"><g><path d="M 10.621094 0.507812 C 16.128906 0.507812 20.699219 -1.640625 20.699219 -6.132812 C 20.699219 -13.785156 7.460938 -13.550781 7.460938 -18.121094 C 7.460938 -19.878906 8.902344 -21.128906 12.066406 -21.128906 C 15.152344 -21.128906 17.378906 -18.511719 18.003906 -15.933594 L 18.355469 -15.933594 L 19.019531 -20.464844 C 17.378906 -21.128906 14.175781 -21.988281 10.542969 -21.988281 C 6.054688 -21.988281 1.875 -20.386719 1.875 -16.324219 C 1.875 -9.839844 14.605469 -11.285156 14.605469 -4.6875 C 14.605469 -1.953125 11.949219 -0.273438 9.449219 -0.273438 C 6.171875 -0.273438 4.335938 -1.875 4.335938 -3.828125 C 4.335938 -5.351562 5.3125 -6.40625 6.796875 -6.40625 C 8.121094 -6.40625 9.097656 -5.585938 8.980469 -4.53125 L 9.410156 -4.53125 C 9.605469 -4.84375 9.761719 -5.429688 9.761719 -5.859375 C 9.761719 -7.730469 7.886719 -9.488281 5.351562 -9.488281 C 2.617188 -9.488281 0.507812 -7.730469 0.507812 -5.039062 C 0.507812 -1.757812 3.984375 0.507812 10.621094 0.507812 Z M 10.621094 0.507812 "/></g></g></g></svg>